<svg xmlns="http://www.w3.org/2000/svg" xmlns:xlink="http://www.w3.org/1999/xlink" version="1.1" x="0px" y="0px" viewBox="0 0 100 125" enable-background="new 0 0 100 100" xml:space="preserve"><g><g><path d="M70.224,44.872H54.839V29.487c0-2.834-2.295-5.127-5.127-5.127c-2.834,0-5.129,2.293-5.129,5.127v20.512    c0,2.836,2.295,5.13,5.129,5.13h20.512c2.832,0,5.125-2.294,5.125-5.13C75.349,47.166,73.056,44.872,70.224,44.872z"/><path d="M49.712,8.976c-22.66,0-41.027,18.366-41.027,41.022s18.367,41.025,41.027,41.025c22.652,0,41.025-18.369,41.025-41.025    S72.364,8.976,49.712,8.976z M49.712,80.768c-16.967,0-30.771-13.8-30.771-30.77c0-16.965,13.805-30.768,30.771-30.768    s30.766,13.803,30.766,30.768C80.478,66.968,66.679,80.768,49.712,80.768z"/></g></g><text x="0" y="115" fill="#000000" font-size="5px" font-weight="bold" font-family="'Helvetica Neue', Helvetica, Arial-Unicode, Arial, Sans-serif">Created by shimaru</text><text x="0" y="120" fill="#000000" font-size="5px" font-weight="bold" font-family="'Helvetica Neue', Helvetica, Arial-Unicode, Arial, Sans-serif">from the Noun Project</text></svg>